<svg width="24" height="24" viewBox="0 0 24 24" fill="none" xmlns="http://www.w3.org/2000/svg">
<path d="M10.3524 3.42213C9.91047 3.83401 9.47614 4.23826 9.04181 4.64061C7.02447 6.51313 5.00713 8.38756 2.98789 10.2563C2.52498 10.6853 2.04494 11.0972 1.46393 11.3489C0.772431 11.6483 0.376201 11.4614 0.153322 10.7158C-0.157185 9.67277 0.00854567 8.70028 0.608604 7.80406C1.11913 7.04132 1.763 6.40634 2.42402 5.78853C3.47746 4.80459 4.53851 3.8302 5.61291 2.87296C6.08343 2.45345 6.59776 2.07018 7.2264 1.94242C9.10849 1.56296 10.3086 3.36683 10.3543 3.42022L10.3524 3.42213Z" fill="#4779FF"/>
<path d="M1.29633 12.9487C2.4412 12.6188 3.30033 11.8923 4.1366 11.1277C6.80353 8.69455 9.46665 6.25951 12.145 3.83973C12.7355 3.30581 13.3566 2.79478 14.0138 2.34857C14.85 1.78034 15.7587 1.69834 16.654 2.23988C16.9779 2.43438 17.296 2.6613 17.5589 2.93207C18.4713 3.87596 19.3724 4.8351 20.2506 5.8114C21.184 6.84873 22.1022 7.90131 22.9956 8.97295C23.3023 9.34097 23.5537 9.77001 23.7614 10.2048C24.1481 11.0133 24.049 11.8122 23.5785 12.5654C23.1575 13.2405 22.5937 13.7935 22.0126 14.3178C19.7381 16.3734 17.4636 18.429 15.1624 20.456C14.5452 21.0013 13.8652 21.4895 13.1642 21.9204C11.844 22.7346 10.5201 22.6336 9.31616 21.6687C8.61514 21.1081 7.95603 20.4808 7.35406 19.8134C5.41482 17.6643 3.51178 15.4848 1.5954 13.3148C1.49825 13.2061 1.41062 13.0879 1.29633 12.9468V12.9487Z" fill="#4779FF"/>
</svg>
